<?xml version="1.0" encoding="UTF-8"?><svg id="Layer_2" xmlns="http://www.w3.org/2000/svg" viewBox="0 0 700.61 256.65"><defs><style>.cls-1{stroke:#fff;stroke-linecap:square;stroke-miterlimit:10;stroke-width:9.08px;}.cls-1,.cls-2{fill:#fff;}.cls-2{stroke-width:0px;}</style></defs><g id="ALL_WHITE"><g id="All_White_Duo-Long"><path class="cls-2" d="M116.24,117.37c0-4.17,2.08-6.25,6.25-6.25h7.39c4.17,0,6.25,2.09,6.25,6.25v57.97h26.94c4.17,0,6.25,2.08,6.25,6.25v4.55c0,4.17-2.09,6.25-6.25,6.25h-40.58c-4.17,0-6.25-2.08-6.25-6.25v-68.77Z"/><path class="cls-2" d="M177.5,117.37c0-4.17,2.08-6.25,6.25-6.25h7.39c4.17,0,6.25,2.09,6.25,6.25v68.77c0,4.17-2.09,6.25-6.25,6.25h-7.39c-4.17,0-6.25-2.08-6.25-6.25v-68.77Z"/><path class="cls-2" d="M230.59,128.17h-18.42c-4.17,0-6.25-2.08-6.25-6.25v-4.55c0-4.17,2.08-6.25,6.25-6.25h56.72c4.17,0,6.25,2.09,6.25,6.25v4.55c0,4.17-2.09,6.25-6.25,6.25h-18.41v57.97c0,4.17-2.09,6.25-6.25,6.25h-7.39c-4.17,0-6.25-2.08-6.25-6.25v-57.97Z"/><path class="cls-2" d="M88.15,95.98h-4.28c-1.76,0-3.18-1.43-3.18-3.18v-15.62c0-2.4-1.22-4.63-3.23-5.93l-6.53-4.21c-1.85-1.19-2.97-3.24-2.97-5.45V21.27c0-2.29-1.16-4.41-3.08-5.65L41.73.71c-1.48-.95-3.38-.95-4.86,0L13.89,15.51c-2.02,1.3-3.25,3.55-3.25,5.96v71.32c0,1.76-1.43,3.18-3.18,3.18H3.19c-1.76,0-3.19,1.43-3.19,3.19h0c0,7.3,3.89,13.7,9.71,17.25.56.34.93.93.99,1.59.61,6.67,4.47,12.41,9.98,15.62.96.56,1.63,1.51,1.8,2.61l8.62,55.39c.71,4.57,4.65,7.94,9.27,7.94h10.58c4.63,0,8.56-3.37,9.27-7.94l8.62-55.39c.17-1.1.84-2.05,1.8-2.61,5.51-3.21,9.38-8.95,9.98-15.62.06-.66.42-1.24.98-1.58,5.83-3.55,9.73-9.96,9.72-17.27,0-1.75-1.44-3.16-3.19-3.16ZM67.95,75.8c0-1.34,1.48-2.15,2.61-1.42l1.82,1.17c1.21.78,1.94,2.12,1.94,3.55v13.69c0,1.75-1.43,3.18-3.18,3.18h-.01c-1.75,0-3.17-1.42-3.17-3.17v-17ZM29.78,92.82v-43.47c0-2.22,1.13-4.29,2.99-5.49l1.32-.85c.88-.56,2.03.06,2.03,1.11v48.68c0,1.74-1.43,3.17-3.17,3.17h-.02c-1.74,0-3.15-1.41-3.15-3.15ZM42.48,10.91c0-.92,1.02-1.48,1.8-.98l15.64,10.07c1.04.67,1.67,1.82,1.67,3.06v36.56c0,.6-.67.97-1.18.64l-2.64-1.7c-1.59-1.02-2.55-2.78-2.55-4.67v-25.53c0-2.38-1.21-4.59-3.2-5.88l-7.91-5.09c-1.01-.65-1.62-1.77-1.62-2.98v-3.5ZM42.48,26.21c0-.99,1.09-1.58,1.92-1.05l3.13,2.02c.82.53,1.31,1.43,1.31,2.41v21.75c0,.64-.71,1.03-1.25.68l-2.69-1.73c-1.52-.98-2.43-2.66-2.43-4.46v-19.62ZM42.48,59.81c0-1.52,1.68-2.44,2.96-1.61l13.81,8.9c1.45.94,2.33,2.54,2.33,4.27v20.32c0,2.37-1.91,4.28-4.28,4.29h-10.55c-2.36,0-4.28-1.93-4.28-4.29v-31.87ZM17.01,92.8V23.91c0-1.76.89-3.4,2.38-4.36l14.2-9.15c1.09-.7,2.53.08,2.53,1.38v19.91c0,1.53-.78,2.95-2.06,3.78l-7.34,4.73c-2.06,1.33-3.31,3.61-3.31,6.07v46.52c0,1.76-1.44,3.2-3.2,3.2h-.02c-1.76,0-3.18-1.42-3.18-3.18ZM61.77,140.29l-7.65,49.2c-.31,1.99-1.93,3.56-3.93,3.69-2.46.15-4.51-1.8-4.51-4.23v-42.91c0-5.36,4.34-9.7,9.7-9.7,0,0,1.41,0,2.97-.02,2.12-.02,3.75,1.87,3.43,3.97ZM72.96,122.18c-2.24,4.61-6.96,7.79-12.42,7.79h-29.74c-5.46,0-10.18-3.18-12.42-7.79-.64-1.31.34-2.83,1.8-2.83h50.98s0,0,0,0c1.46,0,2.44,1.52,1.8,2.83ZM83.37,105.59c-2.32,4.38-6.92,7.38-12.22,7.38H20.18c-5.29,0-9.9-2.99-12.22-7.38-.78-1.47.31-3.24,1.98-3.24h71.46c1.66,0,2.75,1.77,1.98,3.24Z"/><path class="cls-2" d="M343.11,115.99c0-1.5.75-2.25,2.25-2.25h2.66c1.5,0,2.25.75,2.25,2.25v20.85h9.69c1.5,0,2.25.75,2.25,2.25v1.64c0,1.5-.75,2.25-2.25,2.25h-14.59c-1.5,0-2.25-.75-2.25-2.25v-24.73Z"/><path class="cls-2" d="M362.73,132.42c0-1.55.25-3,.76-4.33.5-1.33,1.23-2.49,2.17-3.47.94-.98,2.09-1.76,3.45-2.33,1.36-.57,2.89-.86,4.58-.86,1.55,0,2.94.26,4.15.78,1.21.52,2.24,1.23,3.07,2.13.83.9,1.46,1.96,1.88,3.19.42,1.23.63,2.55.63,3.96,0,.54-.22,1.07-.65,1.57-.44.51-1.01.76-1.72.76h-11.08c.27,1.29.87,2.24,1.8,2.83.93.59,1.96.89,3.11.89.71,0,1.39-.09,2.04-.29.65-.19,1.25-.42,1.8-.69.68-.3,1.27-.4,1.76-.29.49.11.91.49,1.27,1.15l.57,1.07c.33.63.44,1.21.33,1.75-.11.54-.48.98-1.1,1.34-.76.44-1.75.87-2.96,1.28-1.21.41-2.64.62-4.27.62-1.88,0-3.54-.31-4.99-.94-1.45-.63-2.65-1.45-3.62-2.47-.97-1.02-1.7-2.2-2.21-3.54-.51-1.34-.76-2.7-.76-4.09ZM376.42,129.77c0-.87-.26-1.61-.78-2.23-.52-.61-1.23-.92-2.13-.92-1.04,0-1.81.31-2.33.94-.52.63-.87,1.36-1.06,2.21h6.3Z"/><path class="cls-2" d="M388.48,146.37c.27-.71.63-1.17,1.06-1.38.44-.2,1.04-.18,1.8.06.52.16,1.07.3,1.66.41.59.11,1.29.16,2.11.16.65,0,1.28-.07,1.88-.2.6-.14,1.12-.35,1.57-.65.45-.3.81-.7,1.08-1.21.27-.51.41-1.16.41-1.95v-1.55c0-.11.01-.2.04-.29h-.08c-.57.84-1.26,1.48-2.06,1.92-.8.44-1.83.65-3.08.65-1.61,0-3.02-.3-4.23-.9-1.21-.6-2.21-1.39-3.01-2.37-.79-.98-1.38-2.1-1.78-3.37-.4-1.27-.59-2.58-.59-3.94s.19-2.62.57-3.86c.38-1.24.97-2.34,1.78-3.31s1.81-1.74,3.03-2.31c1.21-.57,2.64-.86,4.27-.86,1.15,0,2.08.14,2.8.43.72.29,1.31.61,1.78.96.49.41.88.86,1.19,1.35h.08s-.04-.07-.04-.12v-.37c0-.49.19-.91.57-1.25.38-.34.94-.51,1.68-.51h1.92c1.5,0,2.25.75,2.25,2.25v16.88c0,1.94-.36,3.56-1.06,4.89-.71,1.32-1.62,2.41-2.74,3.25-1.12.84-2.36,1.45-3.74,1.82-1.38.37-2.73.55-4.07.55-1.23,0-2.42-.11-3.58-.31-1.16-.21-2.05-.45-2.68-.72-1.34-.55-1.74-1.52-1.23-2.92l.45-1.23ZM396.41,136.43c.46,0,.92-.07,1.37-.2.45-.14.86-.37,1.23-.71.37-.34.66-.8.88-1.4.22-.59.33-1.35.33-2.27s-.12-1.67-.35-2.25c-.23-.58-.53-1.04-.9-1.38-.37-.34-.8-.57-1.31-.69s-1.01-.18-1.53-.18c-1.26,0-2.2.39-2.82,1.17-.63.78-.94,1.78-.94,3,0,.65.08,1.27.25,1.86s.41,1.11.74,1.56.74.8,1.25,1.07c.51.27,1.11.4,1.82.4Z"/><path class="cls-2" d="M409.9,137.04c0-1.41.37-2.59,1.12-3.51.75-.93,1.71-1.66,2.88-2.21,1.17-.54,2.45-.93,3.84-1.14,1.39-.22,2.74-.33,4.05-.33h.61v-.37c0-.87-.3-1.48-.9-1.82-.6-.34-1.3-.51-2.09-.51-.68,0-1.35.1-2,.29-.65.19-1.25.41-1.8.65-1.39.6-2.4.27-3.03-.98l-.49-1.02c-.3-.63-.38-1.21-.25-1.74.14-.53.52-.96,1.14-1.29.79-.38,1.78-.75,2.98-1.1,1.2-.36,2.56-.53,4.09-.53,2.92,0,5.21.76,6.89,2.27,1.68,1.51,2.51,3.62,2.51,6.32v10.71c0,1.5-.75,2.25-2.25,2.25h-1.96c-1.5,0-2.25-.76-2.25-2.29v-.45c0-.05.01-.1.04-.12h-.08c-.41.63-.91,1.19-1.51,1.68-.52.44-1.17.83-1.96,1.16-.79.34-1.7.51-2.74.51s-1.93-.16-2.78-.49c-.85-.33-1.57-.78-2.17-1.35s-1.07-1.25-1.41-2.04-.51-1.63-.51-2.53ZM416.89,136.39c0,.49.17.91.51,1.27.34.35.84.53,1.49.53.52,0,.99-.12,1.43-.35.43-.23.82-.52,1.14-.88.33-.36.58-.75.76-1.19.18-.44.26-.87.26-1.31v-.57h-.65c-.55,0-1.11.04-1.7.12-.58.08-1.12.22-1.59.41-.48.19-.87.44-1.19.76s-.47.72-.47,1.21Z"/><path class="cls-2" d="M433.24,115.99c0-1.5.75-2.25,2.25-2.25h2.57c1.5,0,2.25.75,2.25,2.25v18.89c0,.79.12,1.32.35,1.59.23.27.51.43.84.49.49.05.89.23,1.19.53s.45.76.45,1.39v2c0,.71-.18,1.27-.53,1.67-.35.41-.94.61-1.76.61-.9,0-1.81-.08-2.72-.24-.91-.16-1.73-.53-2.45-1.09-.72-.56-1.31-1.36-1.76-2.41-.45-1.05-.68-2.46-.68-4.23v-19.21Z"/><path class="cls-2" d="M456.82,115.99c0-1.5.75-2.25,2.25-2.25h2.66c1.5,0,2.25.75,2.25,2.25v24.73c0,1.5-.75,2.25-2.25,2.25h-2.66c-1.5,0-2.25-.75-2.25-2.25v-24.73Z"/><path class="cls-2" d="M468.39,124.16c0-1.5.75-2.25,2.25-2.25h2.29c1.47,0,2.21.75,2.21,2.25v.37c0,.05,0,.11-.02.16-.01.05-.02.11-.02.16v.2h.08c.25-.41.56-.83.94-1.27.38-.43.84-.82,1.39-1.16s1.18-.63,1.9-.86,1.55-.35,2.47-.35c1.06,0,2.06.14,2.98.41.93.27,1.72.72,2.39,1.33.67.61,1.2,1.42,1.59,2.43s.59,2.25.59,3.72v11.41c0,1.5-.75,2.25-2.25,2.25h-2.57c-1.5,0-2.25-.75-2.25-2.25v-10.1c0-.98-.19-1.69-.57-2.13-.38-.43-.97-.65-1.76-.65s-1.47.15-2.04.45-1.05.71-1.43,1.23c-.38.52-.66,1.12-.84,1.8-.18.68-.27,1.39-.27,2.13v7.28c0,1.5-.75,2.25-2.25,2.25h-2.57c-1.5,0-2.25-.75-2.25-2.25v-16.56Z"/><path class="cls-2" d="M493.32,124.16c0-1.5.75-2.25,2.25-2.25h2.29c1.47,0,2.21.75,2.21,2.25v.37c0,.05,0,.11-.02.16-.01.05-.02.11-.02.16v.2h.08c.25-.41.56-.83.94-1.27.38-.43.84-.82,1.39-1.16s1.18-.63,1.9-.86,1.55-.35,2.47-.35c1.06,0,2.06.14,2.98.41.93.27,1.72.72,2.39,1.33.67.61,1.2,1.42,1.59,2.43s.59,2.25.59,3.72v11.41c0,1.5-.75,2.25-2.25,2.25h-2.57c-1.5,0-2.25-.75-2.25-2.25v-10.1c0-.98-.19-1.69-.57-2.13-.38-.43-.97-.65-1.76-.65s-1.47.15-2.04.45-1.05.71-1.43,1.23c-.38.52-.66,1.12-.84,1.8-.18.68-.27,1.39-.27,2.13v7.28c0,1.5-.75,2.25-2.25,2.25h-2.57c-1.5,0-2.25-.75-2.25-2.25v-16.56Z"/><path class="cls-2" d="M517.07,132.5c0-1.66.31-3.17.94-4.54.63-1.36,1.48-2.53,2.55-3.49,1.08-.97,2.34-1.72,3.78-2.25,1.44-.53,2.98-.8,4.62-.8s3.22.27,4.68.8c1.46.53,2.72,1.28,3.8,2.25,1.08.97,1.93,2.13,2.56,3.49.63,1.36.94,2.88.94,4.54s-.31,3.13-.94,4.48c-.63,1.35-1.48,2.51-2.56,3.48-1.08.97-2.34,1.71-3.78,2.23-1.45.52-3,.78-4.66.78s-3.22-.26-4.66-.78c-1.45-.52-2.71-1.26-3.78-2.23-1.08-.97-1.93-2.13-2.55-3.48-.63-1.35-.94-2.84-.94-4.48ZM524.23,132.5c0,.78.13,1.49.39,2.11.26.62.61,1.15,1.04,1.58.44.43.94.76,1.51.99s1.19.34,1.84.34,1.27-.11,1.84-.34,1.08-.56,1.51-.99c.43-.43.78-.96,1.04-1.58.26-.62.39-1.33.39-2.11s-.13-1.49-.39-2.13c-.26-.64-.61-1.18-1.04-1.62-.44-.44-.94-.79-1.51-1.03s-1.19-.36-1.84-.36-1.27.12-1.84.36-1.08.59-1.51,1.03c-.43.45-.78.99-1.04,1.62-.26.63-.39,1.34-.39,2.13Z"/><path class="cls-2" d="M542.09,124.49c-.27-.79-.25-1.42.08-1.88.33-.46.91-.69,1.76-.69h2.74c1.31,0,2.14.63,2.5,1.88l2.74,9.32c.11.36.2.74.29,1.15s.16.8.25,1.19c.08.43.16.87.25,1.31h.08c.05-.43.14-.87.25-1.31.05-.38.13-.78.22-1.19s.2-.79.31-1.15l2.7-9.32c.35-1.25,1.19-1.88,2.49-1.88h2.82c.82,0,1.4.23,1.74.69.34.46.37,1.09.1,1.88l-5.68,16.64c-.41,1.23-1.25,1.84-2.53,1.84h-4.78c-1.28,0-2.13-.61-2.53-1.84l-5.76-16.64Z"/><path class="cls-2" d="M564.29,137.04c0-1.41.37-2.59,1.12-3.51.75-.93,1.71-1.66,2.88-2.21,1.17-.54,2.45-.93,3.84-1.14,1.39-.22,2.74-.33,4.05-.33h.61v-.37c0-.87-.3-1.48-.9-1.82-.6-.34-1.3-.51-2.09-.51-.68,0-1.35.1-2,.29-.65.19-1.25.41-1.8.65-1.39.6-2.4.27-3.03-.98l-.49-1.02c-.3-.63-.38-1.21-.25-1.74.14-.53.52-.96,1.14-1.29.79-.38,1.78-.75,2.98-1.1,1.2-.36,2.56-.53,4.09-.53,2.92,0,5.21.76,6.89,2.27,1.68,1.51,2.51,3.62,2.51,6.32v10.71c0,1.5-.75,2.25-2.25,2.25h-1.96c-1.5,0-2.25-.76-2.25-2.29v-.45c0-.05.01-.1.04-.12h-.08c-.41.63-.91,1.19-1.51,1.68-.52.44-1.17.83-1.96,1.16-.79.34-1.7.51-2.74.51s-1.93-.16-2.78-.49c-.85-.33-1.57-.78-2.17-1.35s-1.07-1.25-1.41-2.04-.51-1.63-.51-2.53ZM571.28,136.39c0,.49.17.91.51,1.27.34.35.84.53,1.49.53.52,0,.99-.12,1.43-.35.43-.23.82-.52,1.14-.88.33-.36.58-.75.76-1.19.18-.44.26-.87.26-1.31v-.57h-.65c-.55,0-1.11.04-1.7.12-.58.08-1.12.22-1.59.41-.48.19-.87.44-1.19.76s-.47.72-.47,1.21Z"/><path class="cls-2" d="M588.85,127.8h-.61c-1.47,0-2.21-.75-2.21-2.25v-1.02c0-1.5.75-2.25,2.25-2.25h.78v-3.8c0-1.5.75-2.25,2.25-2.25h2.37c1.5,0,2.25.75,2.25,2.25v3.8h2.17c1.5,0,2.25.75,2.25,2.25v1.02c0,1.5-.74,2.25-2.21,2.25h-2.21v6.38c0,.9.25,1.55.76,1.94.5.4,1.07.63,1.7.72.82.11,1.4.31,1.74.61.34.3.51.85.51,1.63v1.84c0,.84-.25,1.43-.73,1.76-.49.33-1.21.49-2.17.49-.79,0-1.69-.11-2.7-.33-1.01-.22-1.98-.62-2.9-1.19-.93-.57-1.7-1.36-2.33-2.35-.63-1-.94-2.27-.94-3.82v-7.68Z"/><path class="cls-2" d="M603.73,124.16c0-1.5.75-2.25,2.25-2.25h2.57c1.5,0,2.25.75,2.25,2.25v16.56c0,1.5-.75,2.25-2.25,2.25h-2.57c-1.5,0-2.25-.75-2.25-2.25v-16.56ZM606.06,119.26c-1.5,0-2.25-.75-2.25-2.25v-1.02c0-1.5.75-2.25,2.25-2.25h2.41c1.5,0,2.25.75,2.25,2.25v1.02c0,1.5-.75,2.25-2.25,2.25h-2.41Z"/><path class="cls-2" d="M613.79,132.5c0-1.66.31-3.17.94-4.54.63-1.36,1.48-2.53,2.55-3.49,1.08-.97,2.34-1.72,3.78-2.25,1.44-.53,2.98-.8,4.62-.8s3.22.27,4.68.8c1.46.53,2.72,1.28,3.8,2.25,1.08.97,1.93,2.13,2.56,3.49.63,1.36.94,2.88.94,4.54s-.31,3.13-.94,4.48c-.63,1.35-1.48,2.51-2.56,3.48-1.08.97-2.34,1.71-3.78,2.23-1.45.52-3,.78-4.66.78s-3.22-.26-4.66-.78c-1.45-.52-2.71-1.26-3.78-2.23-1.08-.97-1.93-2.13-2.55-3.48-.63-1.35-.94-2.84-.94-4.48ZM620.94,132.5c0,.78.13,1.49.39,2.11.26.62.61,1.15,1.04,1.58.44.43.94.76,1.51.99s1.19.34,1.84.34,1.27-.11,1.84-.34,1.08-.56,1.51-.99c.43-.43.78-.96,1.04-1.58.26-.62.39-1.33.39-2.11s-.13-1.49-.39-2.13c-.26-.64-.61-1.18-1.04-1.62-.44-.44-.94-.79-1.51-1.03s-1.19-.36-1.84-.36-1.27.12-1.84.36-1.08.59-1.51,1.03c-.43.45-.78.99-1.04,1.62-.26.63-.39,1.34-.39,2.13Z"/><path class="cls-2" d="M640.64,124.16c0-1.5.75-2.25,2.25-2.25h2.29c1.47,0,2.21.75,2.21,2.25v.37c0,.05,0,.11-.02.16-.01.05-.02.11-.02.16v.2h.08c.25-.41.56-.83.94-1.27.38-.43.84-.82,1.39-1.16s1.18-.63,1.9-.86,1.55-.35,2.47-.35c1.06,0,2.06.14,2.98.41.93.27,1.72.72,2.39,1.33.67.61,1.2,1.42,1.59,2.43.4,1.01.59,2.25.59,3.72v11.41c0,1.5-.75,2.25-2.25,2.25h-2.57c-1.5,0-2.25-.75-2.25-2.25v-10.1c0-.98-.19-1.69-.57-2.13-.38-.43-.97-.65-1.76-.65s-1.47.15-2.04.45-1.05.71-1.43,1.23c-.38.52-.66,1.12-.84,1.8-.18.68-.27,1.39-.27,2.13v7.28c0,1.5-.75,2.25-2.25,2.25h-2.57c-1.5,0-2.25-.75-2.25-2.25v-16.56Z"/><path class="cls-2" d="M674.94,134.51c0-.76.11-1.5.33-2.21s.53-1.37.94-1.98.9-1.16,1.47-1.63c.57-.48,1.21-.87,1.92-1.16v-.08c-.65-.33-1.23-.78-1.72-1.35-.44-.49-.83-1.14-1.19-1.94-.36-.8-.53-1.81-.53-3.01,0-1.42.27-2.62.82-3.62s1.27-1.81,2.17-2.45c.9-.64,1.93-1.1,3.08-1.39,1.16-.29,2.35-.43,3.58-.43h1.47c1.5,0,2.25.75,2.25,2.25v1.43c0,1.5-.75,2.25-2.25,2.25h-.86c-1.09,0-1.87.32-2.33.96s-.69,1.33-.69,2.06.25,1.39.76,1.96c.51.57,1.25.86,2.23.86h3.55v-1.35c0-1.5.75-2.25,2.25-2.25h2.53c1.5,0,2.25.6,2.25,1.8v1.8h1.39c1.5,0,2.25.75,2.25,2.25v1.63c0,1.5-.75,2.25-2.25,2.25h-1.39v2.82c0,1.31-.25,2.54-.74,3.7-.49,1.16-1.21,2.17-2.17,3.03s-2.12,1.53-3.5,2.02c-1.38.49-2.96.74-4.76.74-1.66,0-3.17-.23-4.52-.69-1.35-.46-2.49-1.1-3.43-1.9-.94-.8-1.66-1.75-2.17-2.84-.51-1.09-.76-2.26-.76-3.51ZM682.26,134.06c0,.79.34,1.47,1.02,2.04.68.57,1.53.86,2.53.86,1.36,0,2.39-.33,3.09-.98.69-.65,1.04-1.46,1.04-2.41v-2.41h-4.01c-.46,0-.92.05-1.37.14s-.85.26-1.19.49c-.34.23-.61.53-.82.9-.2.37-.31.82-.31,1.37Z"/><path class="cls-2" d="M349.4,167.77h-6.62c-1.5,0-2.25-.75-2.25-2.25v-1.64c0-1.5.75-2.25,2.25-2.25h20.4c1.5,0,2.25.75,2.25,2.25v1.64c0,1.5-.75,2.25-2.25,2.25h-6.62v20.85c0,1.5-.75,2.25-2.25,2.25h-2.66c-1.5,0-2.25-.75-2.25-2.25v-20.85Z"/><path class="cls-2" d="M363.14,180.32c0-1.55.25-3,.76-4.33.5-1.33,1.23-2.49,2.17-3.47.94-.98,2.09-1.76,3.45-2.33,1.36-.57,2.89-.86,4.58-.86,1.55,0,2.94.26,4.15.78,1.21.52,2.24,1.23,3.07,2.13.83.9,1.46,1.96,1.88,3.19.42,1.23.63,2.55.63,3.96,0,.54-.22,1.07-.65,1.57-.44.51-1.01.76-1.72.76h-11.08c.27,1.29.87,2.24,1.8,2.83.93.59,1.96.89,3.11.89.71,0,1.39-.09,2.04-.29s1.25-.42,1.8-.69c.68-.3,1.27-.4,1.76-.29.49.11.91.49,1.27,1.15l.57,1.07c.33.63.44,1.21.33,1.75s-.48.98-1.1,1.34c-.76.44-1.75.87-2.96,1.28-1.21.41-2.64.62-4.27.62-1.88,0-3.54-.31-4.99-.94-1.45-.63-2.65-1.45-3.62-2.47-.97-1.02-1.7-2.2-2.21-3.54-.51-1.34-.76-2.7-.76-4.09ZM376.83,177.66c0-.87-.26-1.61-.78-2.23-.52-.61-1.23-.92-2.13-.92-1.04,0-1.81.31-2.33.94-.52.63-.87,1.36-1.06,2.21h6.3Z"/><path class="cls-2" d="M385.54,180.32c0-1.41.26-2.79.78-4.11.52-1.32,1.27-2.5,2.27-3.52.99-1.02,2.22-1.84,3.68-2.45,1.46-.62,3.13-.92,5.01-.92,1.61,0,2.97.2,4.09.6,1.12.4,2.02.83,2.7,1.3.57.38.89.84.96,1.38.07.54-.09,1.1-.47,1.71l-.7,1.07c-.38.63-.82.98-1.31,1.04s-1.06-.06-1.72-.39c-.41-.22-.87-.4-1.39-.55-.52-.15-1.09-.22-1.72-.22-.84,0-1.58.14-2.21.43-.63.28-1.15.66-1.57,1.13-.42.47-.74,1.01-.94,1.6-.21.6-.31,1.2-.31,1.83s.11,1.24.33,1.86c.22.62.54,1.18.98,1.66.43.49.98.89,1.63,1.2s1.43.47,2.33.47c.71,0,1.39-.12,2.04-.37.65-.25,1.24-.52,1.76-.82.68-.38,1.27-.52,1.78-.41.51.11.93.5,1.29,1.18l.53,1.03c.3.63.41,1.21.33,1.73s-.4.97-.94,1.36c-.74.5-1.73.99-2.98,1.48-1.25.49-2.75.74-4.5.74-1.88,0-3.55-.3-5.01-.9-1.46-.6-2.68-1.41-3.68-2.43-1-1.02-1.75-2.2-2.27-3.54-.52-1.34-.78-2.72-.78-4.17Z"/><path class="cls-2" d="M408.38,163.88c0-1.5.75-2.25,2.25-2.25h2.58c1.5,0,2.25.75,2.25,2.25v6.99c0,.27,0,.52-.02.73-.01.22-.02.41-.02.57-.03.19-.04.35-.04.49h.08c.6-1.04,1.47-1.85,2.62-2.45,1.14-.6,2.41-.9,3.8-.9,1.06,0,2.06.14,2.98.41.93.27,1.72.72,2.39,1.33.67.61,1.2,1.42,1.59,2.43.4,1.01.59,2.25.59,3.72v11.41c0,1.5-.75,2.25-2.25,2.25h-2.58c-1.5,0-2.25-.75-2.25-2.25v-10.1c0-.98-.19-1.69-.57-2.13-.38-.43-.97-.65-1.76-.65-1.53,0-2.67.54-3.44,1.61s-1.14,2.42-1.14,4.03v7.24c0,1.5-.75,2.25-2.25,2.25h-2.58c-1.5,0-2.25-.75-2.25-2.25v-24.73Z"/><path class="cls-2" d="M433.32,172.06c0-1.5.75-2.25,2.25-2.25h2.29c1.47,0,2.21.75,2.21,2.25v.37c0,.05,0,.11-.02.16-.01.05-.02.11-.02.16v.2h.08c.25-.41.56-.83.94-1.27.38-.43.84-.82,1.39-1.16s1.18-.63,1.9-.86,1.55-.35,2.47-.35c1.06,0,2.06.14,2.98.41.93.27,1.72.72,2.39,1.33.67.61,1.2,1.42,1.59,2.43s.59,2.25.59,3.72v11.41c0,1.5-.75,2.25-2.25,2.25h-2.57c-1.5,0-2.25-.75-2.25-2.25v-10.1c0-.98-.19-1.69-.57-2.13-.38-.43-.97-.65-1.76-.65s-1.47.15-2.04.45-1.05.71-1.43,1.23c-.38.52-.66,1.12-.84,1.8-.18.68-.27,1.39-.27,2.13v7.28c0,1.5-.75,2.25-2.25,2.25h-2.57c-1.5,0-2.25-.75-2.25-2.25v-16.56Z"/><path class="cls-2" d="M457.07,180.4c0-1.66.31-3.17.94-4.54.63-1.36,1.48-2.53,2.55-3.49,1.08-.97,2.34-1.72,3.78-2.25,1.44-.53,2.98-.8,4.62-.8s3.22.27,4.68.8c1.46.53,2.72,1.28,3.8,2.25,1.08.97,1.93,2.13,2.56,3.49.63,1.36.94,2.88.94,4.54s-.31,3.13-.94,4.48c-.63,1.35-1.48,2.51-2.56,3.48-1.08.97-2.34,1.71-3.78,2.23-1.45.52-3,.78-4.66.78s-3.22-.26-4.66-.78c-1.45-.52-2.71-1.26-3.78-2.23-1.08-.97-1.93-2.13-2.55-3.48-.63-1.35-.94-2.84-.94-4.48ZM464.22,180.4c0,.78.13,1.49.39,2.11.26.62.61,1.15,1.04,1.58.44.43.94.76,1.51.99s1.19.34,1.84.34,1.27-.11,1.84-.34,1.08-.56,1.51-.99c.43-.43.78-.96,1.04-1.58.26-.62.39-1.33.39-2.11s-.13-1.49-.39-2.13c-.26-.64-.61-1.18-1.04-1.62-.44-.44-.94-.79-1.51-1.03s-1.19-.36-1.84-.36-1.27.12-1.84.36-1.08.59-1.51,1.03c-.43.45-.78.99-1.04,1.62-.26.63-.39,1.34-.39,2.13Z"/><path class="cls-2" d="M483.84,163.88c0-1.5.75-2.25,2.25-2.25h2.57c1.5,0,2.25.75,2.25,2.25v18.89c0,.79.12,1.32.35,1.59.23.27.51.43.84.49.49.05.89.23,1.19.53s.45.76.45,1.39v2c0,.71-.18,1.27-.53,1.67-.35.41-.94.61-1.76.61-.9,0-1.81-.08-2.72-.24-.91-.16-1.73-.53-2.45-1.09-.72-.56-1.31-1.36-1.76-2.41-.45-1.05-.68-2.46-.68-4.23v-19.21Z"/><path class="cls-2" d="M495.13,180.4c0-1.66.31-3.17.94-4.54.63-1.36,1.48-2.53,2.55-3.49,1.08-.97,2.34-1.72,3.78-2.25,1.44-.53,2.98-.8,4.62-.8s3.22.27,4.68.8c1.46.53,2.72,1.28,3.8,2.25,1.08.97,1.93,2.13,2.56,3.49.63,1.36.94,2.88.94,4.54s-.31,3.13-.94,4.48c-.63,1.35-1.48,2.51-2.56,3.48-1.08.97-2.34,1.71-3.78,2.23-1.45.52-3,.78-4.66.78s-3.22-.26-4.66-.78c-1.45-.52-2.71-1.26-3.78-2.23-1.08-.97-1.93-2.13-2.55-3.48-.63-1.35-.94-2.84-.94-4.48ZM502.28,180.4c0,.78.13,1.49.39,2.11.26.62.61,1.15,1.04,1.58.44.43.94.76,1.51.99s1.19.34,1.84.34,1.27-.11,1.84-.34,1.08-.56,1.51-.99c.43-.43.78-.96,1.04-1.58.26-.62.39-1.33.39-2.11s-.13-1.49-.39-2.13c-.26-.64-.61-1.18-1.04-1.62-.44-.44-.94-.79-1.51-1.03s-1.19-.36-1.84-.36-1.27.12-1.84.36-1.08.59-1.51,1.03c-.43.45-.78.99-1.04,1.62-.26.63-.39,1.34-.39,2.13Z"/><path class="cls-2" d="M524.15,194.26c.27-.71.63-1.17,1.06-1.38.44-.2,1.04-.18,1.8.06.52.16,1.07.3,1.66.41.59.11,1.29.16,2.11.16.65,0,1.28-.07,1.88-.2.6-.14,1.12-.35,1.57-.65.45-.3.81-.7,1.08-1.21.27-.51.41-1.16.41-1.95v-1.55c0-.11.01-.2.04-.29h-.08c-.57.84-1.26,1.48-2.06,1.92-.8.44-1.83.65-3.08.65-1.61,0-3.02-.3-4.23-.9-1.21-.6-2.21-1.39-3.01-2.37-.79-.98-1.38-2.1-1.78-3.37-.4-1.27-.59-2.58-.59-3.94s.19-2.62.57-3.86c.38-1.24.97-2.34,1.78-3.31.8-.97,1.81-1.74,3.03-2.31,1.21-.57,2.64-.86,4.27-.86,1.15,0,2.08.14,2.8.43.72.29,1.31.61,1.78.96.49.41.88.86,1.19,1.35h.08s-.04-.07-.04-.12v-.37c0-.49.19-.91.57-1.25.38-.34.94-.51,1.68-.51h1.92c1.5,0,2.25.75,2.25,2.25v16.88c0,1.94-.36,3.56-1.06,4.89s-1.62,2.41-2.74,3.25c-1.12.84-2.36,1.45-3.74,1.82-1.38.37-2.73.55-4.07.55-1.23,0-2.42-.11-3.58-.31-1.16-.21-2.05-.45-2.68-.72-1.34-.55-1.74-1.52-1.23-2.92l.45-1.23ZM532.08,184.32c.46,0,.92-.07,1.37-.2.45-.14.86-.37,1.23-.71.37-.34.66-.8.88-1.4.22-.59.33-1.35.33-2.27s-.12-1.67-.35-2.25c-.23-.58-.53-1.04-.9-1.38-.37-.34-.8-.57-1.31-.69s-1.01-.18-1.53-.18c-1.26,0-2.2.39-2.82,1.17-.63.78-.94,1.78-.94,3,0,.65.08,1.27.25,1.86s.41,1.11.74,1.56.74.8,1.25,1.07c.51.27,1.11.4,1.82.4Z"/><path class="cls-2" d="M547.18,193.6c.4-.16.81-.2,1.25-.12.16.05.35.1.55.14.21.04.43.06.68.06.63,0,1.2-.22,1.74-.65.53-.43.92-.97,1.16-1.59l.41-.98-7.81-18.03c-.35-.79-.37-1.42-.06-1.9.31-.48.91-.72,1.78-.72h3.19c1.31,0,2.17.61,2.58,1.84l2.49,7.85c.08.3.17.64.27,1.02.09.38.18.73.26,1.06.11.41.19.8.25,1.19h.08l.25-1.14c.05-.33.12-.67.2-1.02.08-.36.16-.68.25-.98l2.13-7.89c.35-1.28,1.2-1.92,2.53-1.92h2.98c.82,0,1.4.23,1.74.69.34.46.36,1.09.06,1.88l-7.68,20.72c-.44,1.17-.98,2.16-1.63,2.97-.65.8-1.37,1.46-2.15,1.96-.78.5-1.59.86-2.45,1.08-.86.22-1.71.33-2.55.33-.55,0-1.07-.06-1.57-.16-.51-.11-.96-.23-1.37-.37-.68-.22-1.11-.6-1.29-1.14-.18-.54-.11-1.14.18-1.8l.53-1.19c.3-.63.65-1.02,1.04-1.19Z"/><path class="cls-2" d="M579.7,163.88c0-1.5.75-2.25,2.25-2.25h2.66c1.5,0,2.25.75,2.25,2.25v20.85h9.69c1.5,0,2.25.75,2.25,2.25v1.64c0,1.5-.75,2.25-2.25,2.25h-14.59c-1.5,0-2.25-.75-2.25-2.25v-24.73Z"/><path class="cls-2" d="M599.56,184.93c0-1.41.37-2.59,1.12-3.51.75-.93,1.71-1.66,2.88-2.21,1.17-.54,2.45-.93,3.84-1.14,1.39-.22,2.74-.33,4.05-.33h.61v-.37c0-.87-.3-1.48-.9-1.82-.6-.34-1.3-.51-2.09-.51-.68,0-1.35.1-2,.29-.65.19-1.25.41-1.8.65-1.39.6-2.4.27-3.03-.98l-.49-1.02c-.3-.63-.38-1.21-.25-1.74.14-.53.52-.96,1.14-1.29.79-.38,1.78-.75,2.98-1.1,1.2-.36,2.56-.53,4.09-.53,2.92,0,5.21.76,6.89,2.27,1.68,1.51,2.51,3.62,2.51,6.32v10.71c0,1.5-.75,2.25-2.25,2.25h-1.96c-1.5,0-2.25-.76-2.25-2.29v-.45c0-.05.01-.1.04-.12h-.08c-.41.63-.91,1.19-1.51,1.68-.52.44-1.17.83-1.96,1.16-.79.34-1.7.51-2.74.51s-1.93-.16-2.78-.49c-.85-.33-1.57-.78-2.17-1.35s-1.07-1.25-1.41-2.04-.51-1.63-.51-2.53ZM606.55,184.28c0,.49.17.91.51,1.27.34.35.84.53,1.49.53.52,0,.99-.12,1.43-.35.43-.23.82-.52,1.14-.88.33-.36.58-.75.76-1.19.18-.44.26-.87.26-1.31v-.57h-.65c-.55,0-1.11.04-1.7.12-.58.08-1.12.22-1.59.41-.48.19-.87.44-1.19.76s-.47.72-.47,1.21Z"/><path class="cls-2" d="M623.02,163.88c0-1.5.75-2.25,2.25-2.25h2.58c1.5,0,2.25.75,2.25,2.25v6.3c0,.27,0,.52-.02.74s-.02.41-.02.57c-.03.19-.04.35-.04.49h.08c.38-.49.86-.93,1.43-1.31.46-.33,1.06-.63,1.8-.92.73-.29,1.59-.43,2.57-.43,1.39,0,2.66.27,3.8.8,1.14.53,2.13,1.28,2.94,2.25.82.97,1.46,2.12,1.92,3.45.46,1.34.69,2.81.69,4.41,0,1.69-.25,3.22-.76,4.6-.5,1.38-1.19,2.55-2.06,3.51-.87.97-1.89,1.71-3.07,2.23-1.17.52-2.44.78-3.8.78-1.14,0-2.09-.15-2.84-.45-.75-.3-1.36-.64-1.82-1.02-.54-.43-.99-.93-1.35-1.47h-.08v.12c0,.05,0,.1.02.14.01.04.02.09.02.14v.16c0,.54-.19.99-.57,1.35-.38.35-.94.53-1.67.53h-2c-1.5,0-2.25-.75-2.25-2.25v-24.73ZM629.89,180.25c0,.71.09,1.38.26,2.01s.43,1.18.78,1.66.76.86,1.27,1.15,1.08.43,1.74.43c1.17,0,2.17-.44,2.98-1.31.82-.88,1.23-2.14,1.23-3.78s-.37-2.81-1.12-3.76c-.75-.94-1.74-1.41-2.97-1.41-.54,0-1.07.1-1.57.31-.5.21-.95.51-1.33.92-.38.41-.69.93-.92,1.56s-.35,1.37-.35,2.22Z"/><line class="cls-1" x1="308.37" y1="188.82" x2="308.37" y2="114.2"/><path class="cls-2" d="M125.5,251.12c-3.02,0-6.03-.65-8.76-2.01l-.5-8.26h1.83c.4,2.48.72,4.27,1.98,5.96,1.26,1.69,3.23,2.51,5.24,2.51,3.38,0,5.53-2.26,5.53-4.78,0-2.23-1.37-3.56-3.7-4.74l-5.35-2.73c-1.94-1.01-5.03-2.62-5.03-6.68,0-3.81,2.98-7.11,8.62-7.11,2.77,0,5.46.65,7.94,1.83l.29,7.47h-1.76c-.47-5.21-3.52-7.51-6.68-7.51-2.62,0-4.71,1.54-4.71,3.99,0,1.69.75,3.09,3.55,4.45l5.1,2.52c2.01.97,5.6,2.73,5.6,7.25,0,5.28-4.78,7.83-9.2,7.83Z"/><path class="cls-2" d="M153.19,250.8c-.58-.9-.61-1.11-.86-3.81-3.05,2.84-4.92,3.81-6.82,3.81-2.3,0-3.88-1.44-4.6-2.84-.61-1.22-.65-2.95-.65-4.49v-8.15c0-1.15-.07-2.59-1.98-2.59h-1.08v-1.62l5.6-.32h.86v12.71c0,1.37,0,4.92,3.2,4.92,1.8,0,3.52-1.33,5.46-3.52v-9.45c0-1.26-.04-2.73-2.01-2.73h-1.69v-1.62l6.25-.32h.86v15.27c0,1.22,0,2.8,1.72,2.8h1.47v1.62l-5.75.32Z"/><path class="cls-2" d="M181.86,223.03c3.48,0,5.42,1.62,5.42,3.34,0,1.01-.83,1.76-1.83,1.76s-1.76-.65-2.15-1.9c-.36-1.11-1.04-1.69-2.01-1.69-2.33,0-2.55,2.58-2.55,4.53v2.59h3.95v1.94h-3.95v13.25c0,1.87.43,2.01,1.54,2.01h2.41v1.62h-10.31v-1.62h1.44c1.15,0,1.54-.18,1.54-2.01v-13.25h-8.84v13.25c0,1.87.4,2.01,1.54,2.01h2.37v1.62h-10.49v-1.62h1.65c1.15,0,1.55-.18,1.55-2.01v-13.25h-3.2v-1.94h3.2v-1.26c0-5.03,2.87-7.36,7.87-7.36,2.51,0,4.45.61,5.85,1.87,1.15-1.26,2.8-1.87,4.99-1.87ZM175.36,228.35c-.58-.25-1.04-.76-1.37-1.58-.61-1.47-1.87-2.23-3.77-2.23-1.11,0-2.01.32-2.69,1.01-.68.68-1.01,2.15-1.01,4.45v1.65h8.84v-3.3Z"/><path class="cls-2" d="M194.32,250.8c-4.17,0-8.76-2.98-8.76-9.99s4.56-10.02,8.76-10.02,8.8,3.05,8.8,10.02-4.6,9.99-8.8,9.99ZM194.32,232.48c-4.74,0-4.99,5.78-4.99,8.55,0,2.59.4,8.08,4.99,8.08s5.03-5.82,5.03-8.51-.43-8.12-5.03-8.12Z"/><path class="cls-2" d="M205.17,250.48v-1.62h2.16c1.36,0,1.54-.54,1.54-2.01v-19.25c0-1.15-.04-2.48-2.01-2.48h-1.69v-1.62l6.25-.47h.86v23.82c0,1.47.18,2.01,1.55,2.01h2.12v1.62h-10.78Z"/><path class="cls-2" d="M229.67,250.48v-1.62c1.08,0,1.33,0,1.62-.07.32-.11.43-.36.43-.61,0-.36-.22-.68-.4-.97l-4.6-6.82-2.87,2.87v3.59c0,1.47.14,2.01,1.55,2.01h1.33v1.62h-9.23v-1.62h1.4c1.4,0,1.54-.58,1.54-2.01v-19.25c0-.93,0-2.48-2.01-2.48h-1.22v-1.62l5.78-.47h.86v17.96l5.82-5.82c.79-.79,1.11-1.22,1.11-1.62,0-.83-1.04-.83-1.9-.83h-.9v-1.62h8.94v1.62h-.61c-1.58,0-2.15.36-4.13,2.3l-3.09,3.02,5.96,8.91c.86,1.29,1.29,1.94,3.12,1.9v1.62h-8.51Z"/><path class="cls-2" d="M274.85,225.55c-3.7.04-3.7,2.66-3.7,4.13v12.71c0,1.37,0,3.74-1.83,5.82-2.19,2.48-5.6,2.91-7.76,2.91-3.23,0-6.82-1.01-8.4-3.77-.93-1.65-.93-3.48-.93-4.63v-15.12c0-1.51-.14-2.05-1.51-2.05h-2.19v-1.62h11.67v1.62h-2.52c-1.36,0-1.54.5-1.54,2.05v14.51c0,2.23,0,7.04,6.14,7.04,3.63,0,6.9-2.05,6.9-6.32v-13.14c0-2.8-.79-4.13-4.09-4.13v-1.62h9.77v1.62Z"/><path class="cls-2" d="M288.72,250.48v-1.62h1.37c1.36,0,1.54-.54,1.54-2.01v-8.69c0-1.15-.07-2.12-.43-2.87-.61-1.26-1.76-1.9-2.84-1.9-1.97,0-3.73,1.44-5.24,3.23l-.18.22v10.02c0,1.47.14,2.01,1.58,2.01h1.11v1.62h-9.02v-1.62h1.4c1.4,0,1.51-.54,1.51-2.01v-11.46c0-1.87-.11-2.66-2.08-2.66h-1.11v-1.62l5.68-.32c.68,1.29.97,2.69.93,4.02,2.8-2.69,4.63-4.02,6.9-4.02,2.01,0,3.84,1.19,4.49,2.91.68,1.8.72,3.27.72,4.31v8.84c0,1.47.14,2.01,1.51,2.01h1.44v1.62h-9.27Z"/><path class="cls-2" d="M299.6,250.48v-1.62h2.05c1.37,0,1.55-.54,1.55-2.01v-11.53c0-1.33-.25-2.59-2.01-2.59h-1.58v-1.62l6.14-.32h.86v16.06c0,1.47.14,2.01,1.51,2.01h2.01v1.62h-10.52ZM304.31,227.52c-1.22,0-2.23-.97-2.23-2.23,0-1.62,1.55-2.26,2.3-2.26,1.04,0,2.19.86,2.19,2.26,0,1.26-1.04,2.23-2.26,2.23Z"/><path class="cls-2" d="M329.95,232.73c-1.26,0-2.26.25-3.02,2.41l-5.46,15.34h-2.55l-5.93-15.73c-.5-1.37-.83-2.01-2.94-2.01v-1.62h8.87v1.62h-.9c-.61,0-1.8,0-1.8,1.01,0,.36.25,1.04.43,1.47l4.35,11.46,4.09-11.42c.07-.22.25-.79.25-1.22,0-1.29-1.62-1.29-2.62-1.29v-1.62h7.22v1.62Z"/><path class="cls-2" d="M347.23,245.34c-1.69,3.34-4.27,5.46-8.04,5.46-4.38,0-8.3-3.38-8.3-9.88,0-6.9,3.88-10.13,8.55-10.13,5.14,0,7.79,4.56,7.79,9.59v.79h-12.68c0,1.8,0,7.69,5.06,7.69,3.23,0,5.03-2.62,5.68-3.52h1.94ZM343.39,239.56c.04-.29.04-.58.04-.83.07-4.92-2.3-6.25-4.2-6.25-4.27,0-4.56,5.64-4.63,7.08h8.8Z"/><path class="cls-2" d="M363.29,236.54c-1.11,0-1.8-.86-1.8-1.69,0-.11.11-.72.11-.86,0-.68-.58-.9-.83-.9-1.4,0-4.45,3.56-4.92,4.13v9.63c0,1.47.14,2.01,1.58,2.01h2.59v1.62h-10.67v-1.62h1.55c1.36,0,1.54-.54,1.54-2.01v-11.64c0-1.08-.04-2.48-1.9-2.48h-1.19v-1.62l5.21-.32c.9,1.29,1.04,2.01,1.29,4.42,2.26-2.51,4.09-4.42,6.54-4.42,1.72,0,3.12,1.47,3.12,3.27,0,1.54-1.08,2.48-2.23,2.48Z"/><path class="cls-2" d="M374.67,250.8c-2.41,0-4.82-.4-6.93-1.47v-5.39h1.4c.47,4.2,3.56,5.17,5.82,5.17,3.27,0,4.13-1.94,4.13-3.2,0-1.62-1.37-2.41-3.59-3.05l-1.87-.54c-3.2-.93-5.71-2.37-5.71-5.71,0-3.09,2.3-5.82,6.54-5.82,2.05,0,4.09.54,5.89,1.55l.25,4.92h-1.44c-.29-1.22-1.01-4.78-4.96-4.78-2.19,0-3.63,1.33-3.63,2.98,0,1.98,1.76,2.8,4.35,3.48l1.22.32c3.92,1.04,5.68,2.69,5.68,5.64,0,3.38-2.48,5.89-7.15,5.89Z"/><path class="cls-2" d="M384.09,250.48v-1.62h2.05c1.37,0,1.55-.54,1.55-2.01v-11.53c0-1.33-.25-2.59-2.01-2.59h-1.58v-1.62l6.14-.32h.86v16.06c0,1.47.14,2.01,1.51,2.01h2.01v1.62h-10.52ZM388.79,227.52c-1.22,0-2.23-.97-2.23-2.23,0-1.62,1.55-2.26,2.3-2.26,1.04,0,2.19.86,2.19,2.26,0,1.26-1.04,2.23-2.26,2.23Z"/><path class="cls-2" d="M408.04,248.86c-2.37,1.76-4.13,1.94-4.92,1.94s-3.98-.11-3.98-4.42v-12.79h-3.31v-1.37c4.53-.75,4.96-4.42,5.1-7.61h1.62v7.04h5.03v1.94h-5.03v12.32c0,1.01,0,2.77,1.62,2.77,1.15,0,2.19-.61,3.88-1.87v2.05Z"/><path class="cls-2" d="M429.31,232.73c-2.08.04-2.55,1.08-3.2,2.77l-6.29,16.2c-1.76,4.53-4.17,4.96-5.68,4.96-2.55,0-3.66-1.55-3.66-2.77,0-1.01.65-2.01,1.94-2.01s1.9.97,1.9,1.62c0,.11-.07.54-.07.65,0,.54.36.83.72.83.68,0,2.01-.72,3.05-3.2l.79-1.87-6.36-15.09c-.86-2.05-1.58-2.08-2.98-2.08v-1.62h8.8v1.62h-1.08c-.61,0-1.51.07-1.51,1.12,0,.29.18.79.22.9l4.56,10.81,3.66-9.48c.18-.43.5-1.47.5-1.9,0-1.44-1.69-1.44-2.69-1.44v-1.62h7.36v1.62Z"/><path class="cls-2" d="M461.71,250.48h-21.8v-1.62h2.16c1.37,0,1.54-.54,1.54-2.01v-19.25c0-1.51-.18-2.05-1.54-2.05h-2.16v-1.62h12.61v1.62h-3.45c-1.37,0-1.54.5-1.54,2.05v19.32c0,1.55.43,1.94,1.72,1.94h4.53c4.02,0,5.78-2.48,6.97-8.4h1.65l-.68,10.02Z"/><path class="cls-2" d="M480.42,250.8c-2.41,0-3.45-2.41-3.84-3.34-.79.83-3.27,3.34-6.65,3.34-3.09,0-5.46-1.76-5.46-4.74,0-4.6,4.56-6,11.82-7.22v-2.26c0-1.55,0-4.09-3.55-4.09-2.98,0-3.02,1.22-3.05,2.44-.07,2.3-1.44,2.66-2.3,2.66-1.4,0-1.98-1.11-1.98-1.94,0-1.98,2.34-4.85,7.65-4.85,1.19,0,6.64,0,6.64,4.92v8.98c0,2.12,0,4.02,1.51,4.02.61,0,1.08-.25,1.58-.5v1.87c-.72.4-1.47.72-2.37.72ZM476.29,240.53c-6.39.97-8.12,2.34-8.12,5.14,0,1.58.75,3.23,2.8,3.23,1.8,0,3.66-1.58,5.32-3.16v-5.21Z"/><path class="cls-2" d="M511.02,232.73c-1.51,0-2.34.9-2.77,2.34l-4.63,15.41h-2.26l-4.42-13.07h-.07l-3.88,13.07h-2.44l-5.17-15.88c-.47-1.47-.97-1.87-2.08-1.87h-.5v-1.62h8.05v1.62h-1.19c-.32,0-1.29,0-1.29.83,0,.14.04.47.14.75l3.95,12.14h.07l3.45-11.85c0-.43-.4-1.87-2.08-1.87h-.9v-1.62h8.37v1.62h-.79c-.5,0-1.54,0-1.54.94,0,.04.07.61.18.93l3.95,11.85h.07l3.16-10.85c.25-.9.29-1.19.29-1.4,0-1.4-1.4-1.44-2.23-1.47v-1.62h6.57v1.62Z"/><path class="cls-2" d="M532,251.12c-3.02,0-6.03-.65-8.76-2.01l-.5-8.26h1.83c.4,2.48.72,4.27,1.98,5.96,1.26,1.69,3.23,2.51,5.24,2.51,3.38,0,5.53-2.26,5.53-4.78,0-2.23-1.37-3.56-3.7-4.74l-5.35-2.73c-1.94-1.01-5.03-2.62-5.03-6.68,0-3.81,2.98-7.11,8.62-7.11,2.77,0,5.46.65,7.94,1.83l.29,7.47h-1.76c-.47-5.21-3.52-7.51-6.68-7.51-2.62,0-4.71,1.54-4.71,3.99,0,1.69.75,3.09,3.55,4.45l5.1,2.52c2.01.97,5.6,2.73,5.6,7.25,0,5.28-4.78,7.83-9.2,7.83Z"/><path class="cls-2" d="M560.41,244.77c-.5,1.4-2.19,6.03-7.9,6.03s-8.23-4.49-8.23-9.73c0-8.4,5.82-10.27,9.09-10.27,3.77,0,6.47,2.41,6.47,4.89,0,1.58-.97,2.44-2.16,2.44-1.26,0-2.12-.9-2.12-1.9,0-.25.32-1.44.32-1.69,0-.79-.57-2.05-2.69-2.05-4.78,0-5.14,6.03-5.14,8.22,0,1.9.22,3.88.97,5.53.97,2.12,2.69,2.62,4.02,2.62,1.94,0,4.09-1.22,5.53-4.09h1.83Z"/><path class="cls-2" d="M573.99,250.48v-1.62h1.33c1.37,0,1.55-.54,1.55-2.01v-8.23c0-1.62.04-5.24-3.27-5.24-1.76,0-3.27,1.01-5.32,3.45v10.02c0,1.47.14,2.01,1.51,2.01h1.29v1.62h-9.23v-1.62h1.47c1.37,0,1.55-.54,1.55-2.01v-19.25c0-.9-.04-2.48-2.01-2.48h-1.36v-1.62l5.93-.47h.86v11.64c1.65-1.8,4.27-3.88,6.82-3.88,2.08,0,3.52,1.29,4.24,2.44.97,1.54.94,3.81.94,4.78v8.84c0,1.47.14,2.01,1.54,2.01h1.47v1.62h-9.3Z"/><path class="cls-2" d="M594.11,250.8c-4.17,0-8.76-2.98-8.76-9.99s4.56-10.02,8.76-10.02,8.8,3.05,8.8,10.02-4.6,9.99-8.8,9.99ZM594.11,232.48c-4.74,0-4.99,5.78-4.99,8.55,0,2.59.4,8.08,4.99,8.08s5.03-5.82,5.03-8.51-.43-8.12-5.03-8.12Z"/><path class="cls-2" d="M614.33,250.8c-4.17,0-8.76-2.98-8.76-9.99s4.56-10.02,8.76-10.02,8.8,3.05,8.8,10.02-4.6,9.99-8.8,9.99ZM614.33,232.48c-4.74,0-4.99,5.78-4.99,8.55,0,2.59.4,8.08,4.99,8.08s5.03-5.82,5.03-8.51-.43-8.12-5.03-8.12Z"/><path class="cls-2" d="M625.18,250.48v-1.62h2.16c1.36,0,1.54-.54,1.54-2.01v-19.25c0-1.15-.04-2.48-2.01-2.48h-1.69v-1.62l6.25-.47h.86v23.82c0,1.47.18,2.01,1.55,2.01h2.12v1.62h-10.78Z"/></g></g></svg>