<?xml version="1.0" encoding="UTF-8"?><svg id="Favicons" xmlns="http://www.w3.org/2000/svg" viewBox="0 0 288 288"><defs><style>.cls-1{fill:#172a47;}.cls-1,.cls-2{stroke-width:0px;}.cls-2{fill:#fff;}</style></defs><rect class="cls-1" width="288" height="288"/><path class="cls-2" d="M40.5,99.21c0-5.43,2.71-8.15,8.14-8.15h9.63c5.43,0,8.14,2.72,8.14,8.15v75.52h35.09c5.43,0,8.14,2.71,8.14,8.14v5.92c0,5.43-2.71,8.14-8.14,8.14h-52.86c-5.43,0-8.14-2.71-8.14-8.14v-89.58Z"/><path class="cls-2" d="M120.31,99.21c0-5.43,2.71-8.15,8.14-8.15h9.63c5.43,0,8.14,2.72,8.14,8.15v89.58c0,5.43-2.71,8.14-8.14,8.14h-9.63c-5.43,0-8.14-2.71-8.14-8.14v-89.58Z"/><path class="cls-2" d="M189.45,113.27h-23.99c-5.43,0-8.14-2.71-8.14-8.14v-5.92c0-5.43,2.71-8.15,8.14-8.15h73.89c5.43,0,8.15,2.72,8.15,8.15v5.92c0,5.43-2.72,8.14-8.15,8.14h-23.99v75.52c0,5.43-2.71,8.14-8.14,8.14h-9.62c-5.43,0-8.15-2.71-8.15-8.14v-75.52Z"/></svg>